<svg width="160" height="55" viewBox="0 0 160 55" fill="none" xmlns="http://www.w3.org/2000/svg">
<path d="M75.0208 21.7004L77.4752 23.1009L76.8399 23.3174L76.7244 23.9816L74.5299 22.7544L74.963 22.4223L75.0208 21.7004Z" fill="#ED453A"/>
<path d="M66.2713 18.163L83.2604 27.6036L83.2443 30.6986L66.256 21.1141L66.2713 18.163Z" fill="#ED453A"/>
<path d="M68.1367 16.3821C68.4707 15.7931 69.2166 15.583 69.8089 15.911L82.6142 23.0021C83.1941 23.3232 83.4423 24.0271 83.1923 24.641V24.641C82.8944 25.3724 82.0214 25.6753 81.3344 25.2858L68.6017 18.0652C68.0085 17.7288 67.8003 16.9753 68.1367 16.3821V16.3821Z" fill="#ED453A"/>
<path d="M113.044 31.762C113.104 31.93 113.146 32.122 113.17 32.338C113.206 32.542 113.224 32.752 113.224 32.968C113.224 33.184 113.206 33.4 113.17 33.616C113.146 33.82 113.11 34 113.062 34.156C112.87 34.828 112.486 35.392 111.91 35.848C111.334 36.292 110.674 36.616 109.93 36.82C109.198 37.024 108.436 37.096 107.644 37.036C106.864 36.976 106.168 36.778 105.556 36.442C105.172 36.226 104.842 35.962 104.566 35.65C104.29 35.338 104.056 34.99 103.864 34.606C103.792 34.474 103.744 34.324 103.72 34.156C103.708 33.976 103.726 33.808 103.774 33.652C103.822 33.484 103.9 33.34 104.008 33.22C104.116 33.088 104.266 32.998 104.458 32.95C104.578 32.926 104.71 32.914 104.854 32.914C105.01 32.914 105.16 32.938 105.304 32.986C105.448 33.022 105.58 33.088 105.7 33.184C105.82 33.268 105.916 33.388 105.988 33.544C106.12 33.796 106.306 34.03 106.546 34.246C106.798 34.45 107.062 34.618 107.338 34.75C107.734 34.882 108.13 34.936 108.526 34.912C108.934 34.888 109.3 34.798 109.624 34.642C109.96 34.486 110.23 34.276 110.434 34.012C110.638 33.736 110.74 33.424 110.74 33.076C110.74 32.788 110.698 32.554 110.614 32.374C110.53 32.182 110.41 32.026 110.254 31.906C110.11 31.774 109.93 31.666 109.714 31.582C109.51 31.498 109.282 31.426 109.03 31.366C108.742 31.306 108.448 31.264 108.148 31.24C107.86 31.216 107.566 31.186 107.266 31.15C106.966 31.114 106.672 31.066 106.384 31.006C106.096 30.946 105.814 30.856 105.538 30.736C104.986 30.508 104.566 30.16 104.278 29.692C103.99 29.224 103.816 28.72 103.756 28.18C103.708 27.64 103.774 27.106 103.954 26.578C104.134 26.038 104.422 25.576 104.818 25.192C105.202 24.844 105.658 24.598 106.186 24.454C106.726 24.298 107.32 24.208 107.968 24.184C108.328 24.172 108.688 24.184 109.048 24.22C109.42 24.256 109.774 24.316 110.11 24.4C110.458 24.484 110.776 24.592 111.064 24.724C111.364 24.856 111.622 25.012 111.838 25.192C111.994 25.312 112.15 25.474 112.306 25.678C112.462 25.87 112.582 26.08 112.666 26.308C112.75 26.524 112.774 26.734 112.738 26.938C112.714 27.142 112.588 27.316 112.36 27.46C112.168 27.58 111.982 27.634 111.802 27.622C111.634 27.598 111.472 27.544 111.316 27.46C111.16 27.364 111.01 27.256 110.866 27.136C110.722 27.016 110.59 26.908 110.47 26.812C110.146 26.572 109.744 26.41 109.264 26.326C108.784 26.242 108.334 26.224 107.914 26.272C107.65 26.308 107.404 26.368 107.176 26.452C106.948 26.536 106.75 26.65 106.582 26.794C106.426 26.938 106.3 27.118 106.204 27.334C106.12 27.538 106.09 27.772 106.114 28.036C106.126 28.228 106.18 28.39 106.276 28.522C106.384 28.654 106.51 28.762 106.654 28.846C106.81 28.93 106.978 28.996 107.158 29.044C107.338 29.092 107.518 29.128 107.698 29.152C108.238 29.224 108.778 29.278 109.318 29.314C109.858 29.35 110.386 29.47 110.902 29.674C111.43 29.878 111.88 30.154 112.252 30.502C112.624 30.85 112.888 31.27 113.044 31.762ZM121.367 30.07C121.463 30.238 121.511 30.418 121.511 30.61C121.523 30.802 121.481 30.982 121.385 31.15C121.277 31.366 121.121 31.516 120.917 31.6C120.725 31.672 120.509 31.678 120.269 31.618C120.161 31.594 120.065 31.552 119.981 31.492C119.897 31.432 119.807 31.372 119.711 31.312C119.627 31.24 119.525 31.174 119.405 31.114C119.297 31.054 119.153 31.012 118.973 30.988C118.793 30.964 118.595 30.964 118.379 30.988C118.175 31.012 117.989 31.06 117.821 31.132C117.557 31.264 117.347 31.468 117.191 31.744C117.035 32.008 116.933 32.296 116.885 32.608C116.837 32.908 116.843 33.214 116.903 33.526C116.975 33.838 117.107 34.102 117.299 34.318C117.443 34.486 117.629 34.624 117.857 34.732C118.097 34.84 118.325 34.906 118.541 34.93C118.745 34.954 118.949 34.954 119.153 34.93C119.357 34.894 119.555 34.846 119.747 34.786C119.891 34.726 120.053 34.648 120.233 34.552C120.413 34.444 120.587 34.378 120.755 34.354C120.971 34.354 121.139 34.414 121.259 34.534C121.379 34.642 121.463 34.78 121.511 34.948C121.559 35.104 121.565 35.272 121.529 35.452C121.505 35.632 121.439 35.788 121.331 35.92C121.187 36.1 120.983 36.274 120.719 36.442C120.455 36.598 120.203 36.712 119.963 36.784C119.675 36.88 119.351 36.934 118.991 36.946C118.643 36.958 118.313 36.946 118.001 36.91C117.857 36.886 117.707 36.856 117.551 36.82C117.395 36.784 117.245 36.742 117.101 36.694C116.573 36.502 116.129 36.232 115.769 35.884C115.421 35.524 115.151 35.122 114.959 34.678C114.779 34.234 114.677 33.76 114.653 33.256C114.629 32.752 114.689 32.254 114.833 31.762C114.965 31.294 115.127 30.898 115.319 30.574C115.523 30.25 115.757 29.986 116.021 29.782C116.297 29.566 116.603 29.398 116.939 29.278C117.275 29.146 117.647 29.032 118.055 28.936C118.475 28.852 118.919 28.852 119.387 28.936C119.855 29.02 120.275 29.176 120.647 29.404C120.935 29.56 121.175 29.782 121.367 30.07ZM130.006 33.454C130.018 33.694 130.024 33.946 130.024 34.21C130.024 34.462 130.018 34.696 130.006 34.912C129.994 35.236 129.976 35.536 129.952 35.812C129.928 36.076 129.88 36.304 129.808 36.496C129.736 36.676 129.622 36.814 129.466 36.91C129.322 36.994 129.118 37.018 128.854 36.982C128.578 36.946 128.38 36.814 128.26 36.586C128.14 36.358 128.056 36.1 128.008 35.812C127.972 35.512 127.96 35.212 127.972 34.912C127.984 34.612 127.984 34.378 127.972 34.21C127.96 33.946 127.948 33.646 127.936 33.31C127.936 32.962 127.9 32.638 127.828 32.338C127.768 32.026 127.66 31.762 127.504 31.546C127.348 31.33 127.114 31.216 126.802 31.204C126.406 31.18 126.1 31.21 125.884 31.294C125.68 31.378 125.53 31.504 125.434 31.672C125.338 31.828 125.278 32.02 125.254 32.248C125.242 32.476 125.218 32.722 125.182 32.986L125.164 33.688V35.002C125.164 35.218 125.158 35.446 125.146 35.686C125.146 35.914 125.11 36.124 125.038 36.316C124.966 36.508 124.852 36.67 124.696 36.802C124.552 36.934 124.336 37 124.048 37C123.688 37 123.418 36.886 123.238 36.658C123.07 36.418 122.986 36.124 122.986 35.776V25.426C122.986 25.354 122.986 25.288 122.986 25.228C122.998 25.156 123.01 25.084 123.022 25.012C123.046 24.94 123.064 24.874 123.076 24.814C123.088 24.742 123.106 24.676 123.13 24.616C123.166 24.496 123.226 24.406 123.31 24.346C123.37 24.286 123.43 24.238 123.49 24.202C123.55 24.166 123.616 24.142 123.688 24.13C123.748 24.118 123.814 24.112 123.886 24.112C123.958 24.1 124.03 24.094 124.102 24.094C124.282 24.094 124.456 24.148 124.624 24.256C124.696 24.304 124.762 24.358 124.822 24.418C124.882 24.466 124.93 24.538 124.966 24.634C125.062 24.862 125.11 25.078 125.11 25.282C125.122 25.342 125.128 25.432 125.128 25.552C125.14 25.66 125.146 25.774 125.146 25.894C125.146 26.014 125.146 26.134 125.146 26.254C125.158 26.362 125.164 26.446 125.164 26.506V26.596C125.176 26.98 125.182 27.37 125.182 27.766C125.182 28.162 125.182 28.564 125.182 28.972V29.278C125.686 29.11 126.214 29.032 126.766 29.044C127.318 29.044 127.81 29.152 128.242 29.368C128.686 29.596 129.022 29.854 129.25 30.142C129.49 30.43 129.664 30.748 129.772 31.096C129.88 31.444 129.94 31.816 129.952 32.212C129.976 32.608 129.994 33.022 130.006 33.454ZM133.78 28.864C134.176 28.672 134.59 28.534 135.022 28.45C135.454 28.366 135.88 28.348 136.3 28.396C136.732 28.444 137.146 28.558 137.542 28.738C137.95 28.918 138.322 29.17 138.658 29.494C138.934 29.77 139.174 30.106 139.378 30.502C139.582 30.886 139.732 31.264 139.828 31.636C140.032 32.296 140.062 32.962 139.918 33.634C139.774 34.306 139.528 34.93 139.18 35.506C139.012 35.77 138.802 36.01 138.55 36.226C138.31 36.43 138.052 36.598 137.776 36.73C137.416 36.898 137.026 37.012 136.606 37.072C136.186 37.144 135.778 37.162 135.382 37.126C134.662 37.09 134.026 36.91 133.474 36.586C132.934 36.262 132.496 35.848 132.16 35.344C131.836 34.84 131.62 34.27 131.512 33.634C131.416 32.986 131.458 32.326 131.638 31.654C131.83 30.934 132.106 30.352 132.466 29.908C132.838 29.452 133.276 29.104 133.78 28.864ZM134.32 31.276C134.14 31.444 134.002 31.654 133.906 31.906C133.81 32.158 133.75 32.422 133.726 32.698C133.702 32.962 133.72 33.232 133.78 33.508C133.852 33.772 133.96 34.012 134.104 34.228C134.224 34.408 134.44 34.558 134.752 34.678C135.064 34.798 135.388 34.87 135.724 34.894C136.108 34.918 136.444 34.816 136.732 34.588C137.02 34.348 137.236 34.054 137.38 33.706C137.536 33.358 137.608 32.98 137.596 32.572C137.584 32.164 137.476 31.792 137.272 31.456C137.128 31.216 136.924 31.042 136.66 30.934C136.408 30.814 136.138 30.754 135.85 30.754C135.574 30.742 135.298 30.784 135.022 30.88C134.746 30.964 134.512 31.096 134.32 31.276ZM143.765 28.864C144.161 28.672 144.575 28.534 145.007 28.45C145.439 28.366 145.865 28.348 146.285 28.396C146.717 28.444 147.131 28.558 147.527 28.738C147.935 28.918 148.307 29.17 148.643 29.494C148.919 29.77 149.159 30.106 149.363 30.502C149.567 30.886 149.717 31.264 149.813 31.636C150.017 32.296 150.047 32.962 149.903 33.634C149.759 34.306 149.513 34.93 149.165 35.506C148.997 35.77 148.787 36.01 148.535 36.226C148.295 36.43 148.037 36.598 147.761 36.73C147.401 36.898 147.011 37.012 146.591 37.072C146.171 37.144 145.763 37.162 145.367 37.126C144.647 37.09 144.011 36.91 143.459 36.586C142.919 36.262 142.481 35.848 142.145 35.344C141.821 34.84 141.605 34.27 141.497 33.634C141.401 32.986 141.443 32.326 141.623 31.654C141.815 30.934 142.091 30.352 142.451 29.908C142.823 29.452 143.261 29.104 143.765 28.864ZM144.305 31.276C144.125 31.444 143.987 31.654 143.891 31.906C143.795 32.158 143.735 32.422 143.711 32.698C143.687 32.962 143.705 33.232 143.765 33.508C143.837 33.772 143.945 34.012 144.089 34.228C144.209 34.408 144.425 34.558 144.737 34.678C145.049 34.798 145.373 34.87 145.709 34.894C146.093 34.918 146.429 34.816 146.717 34.588C147.005 34.348 147.221 34.054 147.365 33.706C147.521 33.358 147.593 32.98 147.581 32.572C147.569 32.164 147.461 31.792 147.257 31.456C147.113 31.216 146.909 31.042 146.645 30.934C146.393 30.814 146.123 30.754 145.835 30.754C145.559 30.742 145.283 30.784 145.007 30.88C144.731 30.964 144.497 31.096 144.305 31.276ZM154.014 35.56C154.002 35.62 153.99 35.68 153.978 35.74C153.978 35.788 153.978 35.842 153.978 35.902L153.87 36.28C153.846 36.328 153.828 36.358 153.816 36.37L153.762 36.478C153.702 36.61 153.594 36.718 153.438 36.802C153.15 36.946 152.844 36.982 152.52 36.91C152.316 36.886 152.154 36.826 152.034 36.73C151.914 36.646 151.83 36.544 151.782 36.424C151.734 36.304 151.698 36.184 151.674 36.064C151.638 35.944 151.62 35.836 151.62 35.74V25.66C151.62 25.576 151.62 25.504 151.62 25.444C151.632 25.372 151.644 25.306 151.656 25.246C151.668 25.162 151.68 25.09 151.692 25.03C151.716 24.97 151.74 24.904 151.764 24.832C151.8 24.712 151.866 24.616 151.962 24.544C152.106 24.436 152.244 24.376 152.376 24.364C152.46 24.34 152.538 24.328 152.61 24.328C152.682 24.316 152.766 24.31 152.862 24.31C153.03 24.31 153.222 24.358 153.438 24.454C153.606 24.55 153.726 24.682 153.798 24.85C153.918 25.09 153.978 25.312 153.978 25.516C153.99 25.636 153.996 25.816 153.996 26.056C154.008 26.296 154.014 26.476 154.014 26.596V26.668C154.038 27.052 154.05 27.424 154.05 27.784C154.05 28.132 154.044 28.516 154.032 28.936C154.032 29.344 154.026 29.74 154.014 30.124C154.014 30.496 154.014 30.868 154.014 31.24V35.02C154.014 35.068 154.014 35.116 154.014 35.164C154.026 35.2 154.032 35.242 154.032 35.29C154.032 35.41 154.026 35.5 154.014 35.56Z" fill="black"/>
<path d="M79.9034 24.6765L83 24.1198L82.9999 25.1738L83 26.4118V28.5179V32.5966V38.9086C83 39.1866 82.9419 39.4615 82.8295 39.7158V39.7158L82.637 40.0576C82.4815 40.3336 82.3036 40.5963 82.1051 40.843V40.843V40.843C81.8784 41.0699 81.6299 41.274 81.3633 41.4523L80.8551 41.7923L80.0313 42.2224L74.1364 45.7078L72.9596 46.453C70.8083 47.8153 68 46.2697 68 43.7234V39.4515C68 37.9 68.8 36.4582 70.1165 35.6371V35.6371L75.9119 32.0033L72.929 30.268L69.6335 28.2806L69.1339 27.887C68.9278 27.7247 68.7399 27.5405 68.5735 27.3378V27.3378C68.4569 27.1958 68.3619 27.0376 68.2913 26.868L68.1972 26.6422C68.1417 26.5089 68.103 26.3692 68.0819 26.2263V26.2263C68.0463 25.9844 68.0284 25.7403 68.0284 25.4958V23.5938L76.8352 28.9332H77.0055C77.1256 28.9332 77.2426 28.895 77.3396 28.8241V28.8241C77.4272 28.76 77.4922 28.6698 77.5252 28.5664L77.5312 28.5479C77.55 28.4887 77.5597 28.4269 77.5597 28.3648V28.2495C77.5597 28.1617 77.5497 28.0742 77.5301 27.9887V27.9887C77.4935 27.8296 77.4195 27.6816 77.3141 27.5569L77.2614 27.4945L79.733 25.863L79.8258 25.7337C79.8772 25.6621 79.9177 25.5832 79.9457 25.4996V25.4996C79.9835 25.3866 80.0028 25.2683 80.0028 25.1492V25.0862C80.0028 24.9437 79.9687 24.8032 79.9034 24.6765V24.6765Z" fill="#ED453A"/>
<path d="M28.044 30.762C28.104 30.93 28.146 31.122 28.17 31.338C28.206 31.542 28.224 31.752 28.224 31.968C28.224 32.184 28.206 32.4 28.17 32.616C28.146 32.82 28.11 33 28.062 33.156C27.87 33.828 27.486 34.392 26.91 34.848C26.334 35.292 25.674 35.616 24.93 35.82C24.198 36.024 23.436 36.096 22.644 36.036C21.864 35.976 21.168 35.778 20.556 35.442C20.172 35.226 19.842 34.962 19.566 34.65C19.29 34.338 19.056 33.99 18.864 33.606C18.792 33.474 18.744 33.324 18.72 33.156C18.708 32.976 18.726 32.808 18.774 32.652C18.822 32.484 18.9 32.34 19.008 32.22C19.116 32.088 19.266 31.998 19.458 31.95C19.578 31.926 19.71 31.914 19.854 31.914C20.01 31.914 20.16 31.938 20.304 31.986C20.448 32.022 20.58 32.088 20.7 32.184C20.82 32.268 20.916 32.388 20.988 32.544C21.12 32.796 21.306 33.03 21.546 33.246C21.798 33.45 22.062 33.618 22.338 33.75C22.734 33.882 23.13 33.936 23.526 33.912C23.934 33.888 24.3 33.798 24.624 33.642C24.96 33.486 25.23 33.276 25.434 33.012C25.638 32.736 25.74 32.424 25.74 32.076C25.74 31.788 25.698 31.554 25.614 31.374C25.53 31.182 25.41 31.026 25.254 30.906C25.11 30.774 24.93 30.666 24.714 30.582C24.51 30.498 24.282 30.426 24.03 30.366C23.742 30.306 23.448 30.264 23.148 30.24C22.86 30.216 22.566 30.186 22.266 30.15C21.966 30.114 21.672 30.066 21.384 30.006C21.096 29.946 20.814 29.856 20.538 29.736C19.986 29.508 19.566 29.16 19.278 28.692C18.99 28.224 18.816 27.72 18.756 27.18C18.708 26.64 18.774 26.106 18.954 25.578C19.134 25.038 19.422 24.576 19.818 24.192C20.202 23.844 20.658 23.598 21.186 23.454C21.726 23.298 22.32 23.208 22.968 23.184C23.328 23.172 23.688 23.184 24.048 23.22C24.42 23.256 24.774 23.316 25.11 23.4C25.458 23.484 25.776 23.592 26.064 23.724C26.364 23.856 26.622 24.012 26.838 24.192C26.994 24.312 27.15 24.474 27.306 24.678C27.462 24.87 27.582 25.08 27.666 25.308C27.75 25.524 27.774 25.734 27.738 25.938C27.714 26.142 27.588 26.316 27.36 26.46C27.168 26.58 26.982 26.634 26.802 26.622C26.634 26.598 26.472 26.544 26.316 26.46C26.16 26.364 26.01 26.256 25.866 26.136C25.722 26.016 25.59 25.908 25.47 25.812C25.146 25.572 24.744 25.41 24.264 25.326C23.784 25.242 23.334 25.224 22.914 25.272C22.65 25.308 22.404 25.368 22.176 25.452C21.948 25.536 21.75 25.65 21.582 25.794C21.426 25.938 21.3 26.118 21.204 26.334C21.12 26.538 21.09 26.772 21.114 27.036C21.126 27.228 21.18 27.39 21.276 27.522C21.384 27.654 21.51 27.762 21.654 27.846C21.81 27.93 21.978 27.996 22.158 28.044C22.338 28.092 22.518 28.128 22.698 28.152C23.238 28.224 23.778 28.278 24.318 28.314C24.858 28.35 25.386 28.47 25.902 28.674C26.43 28.878 26.88 29.154 27.252 29.502C27.624 29.85 27.888 30.27 28.044 30.762ZM37.9332 27.972C38.0412 28.14 38.0892 28.32 38.0772 28.512C38.0772 28.788 38.0292 29.028 37.9332 29.232C37.9092 29.292 37.8732 29.37 37.8252 29.466C37.7892 29.562 37.7472 29.664 37.6992 29.772C37.6632 29.88 37.6212 29.982 37.5732 30.078C37.5252 30.174 37.4892 30.246 37.4652 30.294L37.4292 30.384C37.2612 30.756 37.0992 31.116 36.9432 31.464C36.7872 31.812 36.6132 32.184 36.4212 32.58C36.2292 32.964 36.0432 33.342 35.8632 33.714C35.6952 34.074 35.5272 34.428 35.3592 34.776C35.3112 34.872 35.2692 34.968 35.2332 35.064C35.1972 35.148 35.1492 35.238 35.0892 35.334L34.2252 37.188C34.0692 37.5 33.9192 37.806 33.7752 38.106C33.6432 38.406 33.4932 38.706 33.3252 39.006C33.2892 39.066 33.2532 39.12 33.2172 39.168C33.1932 39.228 33.1692 39.288 33.1452 39.348C33.0612 39.492 32.9352 39.63 32.7672 39.762C32.6112 39.906 32.4432 39.984 32.2632 39.996C31.9392 40.02 31.6572 39.924 31.4172 39.708C31.2732 39.624 31.1592 39.504 31.0752 39.348C31.0272 39.24 31.0032 39.102 31.0032 38.934C31.0152 38.862 31.0212 38.79 31.0212 38.718C31.0332 38.658 31.0452 38.598 31.0572 38.538C31.0812 38.478 31.0992 38.418 31.1112 38.358C31.1232 38.298 31.1412 38.25 31.1652 38.214C31.2012 38.118 31.2312 38.07 31.2552 38.07L32.5692 35.226C32.5092 35.094 32.4492 34.962 32.3892 34.83C32.3292 34.686 32.2752 34.56 32.2272 34.452C32.0712 34.08 31.9032 33.69 31.7232 33.282C31.5552 32.862 31.3812 32.448 31.2012 32.04C31.0212 31.62 30.8352 31.212 30.6432 30.816C30.4512 30.42 30.2592 30.042 30.0672 29.682C29.9952 29.562 29.9292 29.436 29.8692 29.304C29.8092 29.16 29.7612 29.022 29.7252 28.89C29.6892 28.746 29.6772 28.602 29.6892 28.458C29.7012 28.314 29.7552 28.17 29.8512 28.026C29.9472 27.846 30.0732 27.72 30.2292 27.648C30.3852 27.564 30.5472 27.528 30.7152 27.54C30.8952 27.54 31.0632 27.576 31.2192 27.648C31.3752 27.72 31.5012 27.816 31.5972 27.936C31.8012 28.152 31.9632 28.392 32.0832 28.656C32.2032 28.92 32.3172 29.19 32.4252 29.466C32.6532 29.946 32.8872 30.45 33.1272 30.978C33.3672 31.506 33.6072 32.022 33.8472 32.526L34.7832 30.546C34.8792 30.354 34.9632 30.168 35.0352 29.988C35.1192 29.808 35.2032 29.634 35.2872 29.466C35.3832 29.262 35.4732 29.052 35.5572 28.836C35.6532 28.62 35.7612 28.422 35.8812 28.242C35.9052 28.194 35.9292 28.152 35.9532 28.116C35.9772 28.08 36.0012 28.038 36.0252 27.99C36.1332 27.846 36.2292 27.732 36.3132 27.648C36.3732 27.6 36.4212 27.564 36.4572 27.54C36.5052 27.504 36.5592 27.48 36.6192 27.468C36.7032 27.444 36.7812 27.432 36.8532 27.432C36.9372 27.42 37.0152 27.42 37.0872 27.432C37.2072 27.468 37.3512 27.522 37.5192 27.594C37.6992 27.666 37.8372 27.792 37.9332 27.972ZM39.5505 29.574C39.5505 29.298 39.5445 29.004 39.5325 28.692C39.5325 28.38 39.5865 28.098 39.6945 27.846C39.7905 27.618 39.9465 27.456 40.1625 27.36C40.3905 27.252 40.6125 27.228 40.8285 27.288C41.0445 27.324 41.2125 27.39 41.3325 27.486C41.4525 27.582 41.5365 27.696 41.5845 27.828C41.6445 27.948 41.6805 28.092 41.6925 28.26C41.7045 28.416 41.7165 28.572 41.7285 28.728C41.8485 28.512 41.9985 28.338 42.1785 28.206C42.3585 28.074 42.5445 27.966 42.7365 27.882C42.9285 27.798 43.1085 27.738 43.2765 27.702C43.4565 27.666 43.5945 27.648 43.6905 27.648C44.1465 27.648 44.5965 27.75 45.0405 27.954C45.4965 28.146 45.8745 28.422 46.1745 28.782C46.3425 28.998 46.4685 29.226 46.5525 29.466C46.6485 29.694 46.7145 29.934 46.7505 30.186C46.7985 30.438 46.8285 30.696 46.8405 30.96C46.8525 31.212 46.8645 31.47 46.8765 31.734C46.9365 32.502 46.9365 33.264 46.8765 34.02C46.8645 34.176 46.8585 34.356 46.8585 34.56C46.8585 34.764 46.8405 34.968 46.8045 35.172C46.7805 35.364 46.7265 35.538 46.6425 35.694C46.5705 35.838 46.4445 35.928 46.2645 35.964C46.0125 36.024 45.8025 36.036 45.6345 36C45.4785 35.976 45.3525 35.922 45.2565 35.838C45.1605 35.754 45.0885 35.646 45.0405 35.514C44.9925 35.382 44.9505 35.232 44.9145 35.064C44.8905 34.932 44.8665 34.782 44.8425 34.614C44.8305 34.434 44.8185 34.254 44.8065 34.074C44.8065 33.894 44.8005 33.72 44.7885 33.552C44.7885 33.372 44.7885 33.21 44.7885 33.066C44.7885 32.838 44.7825 32.586 44.7705 32.31C44.7585 32.034 44.7585 31.776 44.7705 31.536C44.7705 30.972 44.6205 30.546 44.3205 30.258C44.0325 29.958 43.6365 29.832 43.1325 29.88C42.7485 29.928 42.4125 30.084 42.1245 30.348C41.8365 30.6 41.6985 30.93 41.7105 31.338C41.7105 31.494 41.7105 31.638 41.7105 31.77C41.7105 31.902 41.7045 32.034 41.6925 32.166C41.6925 32.298 41.6925 32.442 41.6925 32.598C41.6925 32.754 41.6925 32.928 41.6925 33.12C41.6925 33.516 41.6925 33.936 41.6925 34.38C41.6925 34.812 41.6385 35.166 41.5305 35.442C41.4345 35.73 41.2725 35.928 41.0445 36.036C40.8165 36.144 40.5465 36.114 40.2345 35.946C40.1025 35.874 39.9945 35.778 39.9105 35.658C39.8385 35.526 39.7785 35.388 39.7305 35.244C39.6945 35.1 39.6705 34.956 39.6585 34.812C39.6465 34.656 39.6345 34.512 39.6225 34.38C39.5865 33.984 39.5625 33.618 39.5505 33.282C39.5505 32.934 39.5505 32.562 39.5505 32.166V29.574ZM55.3396 28.062C55.4356 28.29 55.4416 28.542 55.3576 28.818C55.2856 29.094 55.1476 29.274 54.9436 29.358C54.8356 29.406 54.6916 29.448 54.5116 29.484C54.3316 29.508 54.1336 29.532 53.9176 29.556C53.7136 29.58 53.5096 29.598 53.3056 29.61C53.1016 29.622 52.9276 29.628 52.7836 29.628C52.7956 29.988 52.8076 30.36 52.8196 30.744C52.8316 31.116 52.8436 31.482 52.8556 31.842C52.8676 32.202 52.8736 32.55 52.8736 32.886C52.8736 33.21 52.8676 33.504 52.8556 33.768C52.8556 33.948 52.8556 34.158 52.8556 34.398C52.8556 34.626 52.8376 34.848 52.8016 35.064C52.7776 35.28 52.7356 35.472 52.6756 35.64C52.6156 35.796 52.5256 35.898 52.4056 35.946C52.0336 36.102 51.6916 36.144 51.3796 36.072C51.0796 36.012 50.8636 35.886 50.7316 35.694C50.6356 35.538 50.5636 35.358 50.5156 35.154C50.4676 34.938 50.4316 34.722 50.4076 34.506C50.3956 34.278 50.3896 34.062 50.3896 33.858C50.4016 33.642 50.4076 33.456 50.4076 33.3C50.4196 32.796 50.4256 32.226 50.4256 31.59C50.4376 30.942 50.4436 30.294 50.4436 29.646H50.1736C50.0296 29.646 49.8436 29.646 49.6156 29.646C49.3996 29.634 49.1776 29.616 48.9496 29.592C48.7336 29.556 48.5296 29.514 48.3376 29.466C48.1456 29.406 48.0076 29.322 47.9236 29.214C47.7916 29.058 47.7076 28.89 47.6716 28.71C47.6476 28.53 47.6596 28.362 47.7076 28.206C47.7676 28.038 47.8576 27.894 47.9776 27.774C48.0976 27.642 48.2356 27.558 48.3916 27.522C48.6076 27.462 48.9136 27.432 49.3096 27.432C49.7056 27.42 50.0776 27.42 50.4256 27.432C50.4136 27.312 50.4076 27.198 50.4076 27.09C50.4076 26.97 50.4016 26.856 50.3896 26.748C50.3776 26.604 50.3716 26.424 50.3716 26.208C50.3716 25.98 50.3836 25.758 50.4076 25.542C50.4436 25.314 50.4976 25.104 50.5696 24.912C50.6416 24.708 50.7436 24.552 50.8756 24.444C51.0556 24.3 51.2356 24.222 51.4156 24.21C51.6076 24.186 51.7816 24.21 51.9376 24.282C52.1056 24.354 52.2436 24.462 52.3516 24.606C52.4716 24.738 52.5556 24.888 52.6036 25.056C52.6396 25.2 52.6696 25.374 52.6936 25.578C52.7176 25.77 52.7296 25.974 52.7296 26.19C52.7416 26.406 52.7476 26.622 52.7476 26.838C52.7476 27.054 52.7476 27.252 52.7476 27.432H52.9276C53.1076 27.432 53.3176 27.426 53.5576 27.414C53.7976 27.402 54.0316 27.408 54.2596 27.432C54.4996 27.456 54.7156 27.516 54.9076 27.612C55.0996 27.696 55.2436 27.846 55.3396 28.062ZM58.1971 28.422C58.5571 28.242 58.9351 28.116 59.3311 28.044C59.7271 27.96 60.1171 27.942 60.5011 27.99C60.8971 28.026 61.2751 28.128 61.6351 28.296C61.9951 28.452 62.3311 28.68 62.6431 28.98C62.9551 29.292 63.1951 29.634 63.3631 30.006C63.5311 30.378 63.6511 30.792 63.7231 31.248C63.7711 31.56 63.8491 31.848 63.9571 32.112C64.0651 32.376 64.1791 32.64 64.2991 32.904C64.4311 33.168 64.5511 33.432 64.6591 33.696C64.7791 33.96 64.8751 34.236 64.9471 34.524C65.0071 34.8 64.9831 35.07 64.8751 35.334C64.7791 35.586 64.5751 35.742 64.2631 35.802C64.0831 35.838 63.9091 35.826 63.7411 35.766C63.5851 35.694 63.4411 35.598 63.3091 35.478C63.1771 35.346 63.0571 35.208 62.9491 35.064C62.8531 34.908 62.7631 34.764 62.6791 34.632C62.4031 34.992 62.1031 35.274 61.7791 35.478C61.4551 35.67 61.0651 35.796 60.6091 35.856C60.2251 35.904 59.8591 35.916 59.5111 35.892C59.1631 35.868 58.7911 35.802 58.3951 35.694C57.8791 35.562 57.4531 35.334 57.1171 35.01C56.7931 34.674 56.5411 34.29 56.3611 33.858C56.1931 33.414 56.1031 32.94 56.0911 32.436C56.0791 31.932 56.1391 31.434 56.2711 30.942C56.4391 30.294 56.6911 29.766 57.0271 29.358C57.3631 28.95 57.7531 28.638 58.1971 28.422ZM58.6471 30.528C58.4791 30.696 58.3471 30.894 58.2511 31.122C58.1551 31.35 58.0951 31.59 58.0711 31.842C58.0591 32.094 58.0831 32.346 58.1431 32.598C58.2031 32.85 58.2991 33.072 58.4311 33.264C58.5511 33.432 58.7551 33.576 59.0431 33.696C59.3311 33.804 59.6311 33.87 59.9431 33.894C60.3031 33.918 60.6151 33.822 60.8791 33.606C61.1551 33.39 61.3591 33.12 61.4911 32.796C61.6351 32.46 61.7011 32.106 61.6891 31.734C61.6771 31.35 61.5751 31.002 61.3831 30.69C61.2391 30.462 61.0471 30.294 60.8071 30.186C60.5791 30.078 60.3331 30.024 60.0691 30.024C59.8051 30.012 59.5411 30.054 59.2771 30.15C59.0251 30.234 58.8151 30.36 58.6471 30.528Z" fill="black"/>
<path d="M75.9065 31.5938L80.8239 34.3997L81.3644 34.8178C82.3933 35.6138 82.9843 36.8501 82.9576 38.1507V38.1507V38.5938L82.5054 38.0916V38.0916C82.2751 37.8606 81.9814 37.703 81.6615 37.6388L70 35.3005L75.9065 31.5938Z" fill="#CE3E34"/>
<path d="M92.9648 41.4754L90.4941 40.1038L91.1268 39.8798L91.2345 39.2144L93.4433 40.4158L93.0141 40.7529L92.9648 41.4754Z" fill="#F4BD22"/>
<path d="M101.755 44.9099L84.6563 35.669L84.6362 32.574L101.736 41.9589L101.755 44.9099Z" fill="#F4BD22"/>
<path d="M99.9108 46.7127C99.5838 47.3055 98.8403 47.5244 98.2442 47.2034L85.3567 40.2628C84.7732 39.9485 84.5166 39.2476 84.7595 38.6308V38.6308C85.0488 37.8959 85.9182 37.5828 86.6097 37.9643L99.4262 45.0351C100.023 45.3646 100.24 46.1156 99.9108 46.7127V46.7127Z" fill="#F4BD22"/>
<path d="M87.7997 38.607L84.6725 39.1903L84.6605 38.1553L84.6461 36.9398L84.6219 34.8719L84.575 30.8671L84.5024 24.6716C84.4992 24.3974 84.5548 24.1257 84.6656 23.8748V23.8748L84.8554 23.5388C85.0103 23.2648 85.1876 23.0041 85.3857 22.7595V22.7595V22.7595C85.6125 22.534 85.8608 22.3312 86.127 22.154L86.6397 21.8126L87.4685 21.3805L93.3938 17.8883L94.7659 17.0229C96.862 15.7009 99.5961 17.1882 99.6252 19.6662L99.6748 23.9043C99.693 25.4583 98.8977 26.9088 97.5776 27.7289V27.7289L91.7546 31.3655L94.7932 33.034L98.1509 34.9464L98.6651 35.3299C98.8728 35.4848 99.0632 35.6618 99.2329 35.8577V35.8577C99.3535 35.9969 99.4527 36.1532 99.5273 36.3216L99.6238 36.5393C99.6811 36.6687 99.7217 36.8049 99.7446 36.9445V36.9445C99.7835 37.1819 99.8045 37.4219 99.8073 37.6625L99.8292 39.5293L90.8556 34.391L90.6784 34.3931C90.5599 34.3945 90.4448 34.4327 90.3489 34.5024V34.5024C90.2594 34.5674 90.1932 34.6594 90.1598 34.7649L90.1562 34.7765C90.1375 34.8355 90.1284 34.8972 90.1291 34.9591L90.1304 35.0697C90.1314 35.1567 90.1425 35.2432 90.1636 35.3276V35.3276C90.2022 35.4826 90.278 35.626 90.3843 35.7452L90.4409 35.8087L87.9586 37.4399L87.865 37.5694C87.8145 37.6394 87.775 37.7166 87.7477 37.7985V37.7985C87.7106 37.9103 87.6923 38.0275 87.6937 38.1454L87.6944 38.2044C87.696 38.3452 87.7322 38.4834 87.7997 38.607V38.607Z" fill="#F4BD22"/>
<path d="M91.7349 31.3434L86.7437 28.6358L86.1701 28.2124C85.1399 27.4522 84.5369 26.2439 84.5487 24.9637V24.9637L84.5436 24.527L85.0054 25.0165V25.0165C85.2405 25.2417 85.5364 25.3931 85.8565 25.4519L97.6483 27.6199L91.7349 31.3434Z" fill="#DCAD29"/>
</svg>
